<svg version="1.0" xmlns="http://www.w3.org/2000/svg" viewBox="0 0 1327.296703 1327.729564" preserveAspectRatio="xMidYMid meet"> <g transform="translate(-336.530405,1663.830284) rotate(-360.00) scale(0.095238,-0.095238)" fill="#000000" stroke="none"> <path d="M10033 17460 c-811 -57 -1556 -231 -2295 -535 -222 -91 -661 -312 -872 -437 -1778 -1060 -2976 -2819 -3268 -4796 -56 -376 -64 -505 -64 -971 0 -466 8 -592 63 -976 89 -614 284 -1284 525 -1810 244 -530 624 -1090 1106 -1630 84 -93 148 -211 176 -320 22 -91 15 -273 -16 -360 -56 -159 -122 -246 -225 -298 -100 -50 -186 -134 -223 -216 -23 -52 -29 -79 -29 -144 1 -78 5 -92 217 -651 120 -315 230 -594 246 -620 40 -65 119 -122 205 -148 58 -18 89 -21 168 -17 88 4 171 27 930 252 572 170 860 261 919 289 293 141 470 430 427 697 -24 147 -242 822 -362 1117 -85 213 -246 558 -448 961 -246 491 -401 767 -677 1201 -189 298 -284 465 -394 693 -239 495 -385 994 -447 1523 -26 220 -26 736 -1 950 126 1045 558 1954 1283 2697 398 409 803 704 1318 961 882 440 1857 604 2842 479 755 -96 1484 -369 2109 -787 694 -466 1251 -1099 1611 -1833 598 -1218 626 -2611 78 -3848 -90 -202 -197 -398 -341 -626 -409 -647 -736 -1229 -981 -1748 -227 -478 -304 -671 -442 -1107 -49 -156 -111 -347 -137 -425 -78 -236 -73 -383 18 -566 73 -146 230 -289 385 -352 33 -14 439 -138 901 -275 l840 -251 110 1 c88 1 122 5 170 24 65 25 142 88 175 141 29 47 440 1130 455 1196 36 171 -66 352 -247 437 -78 37 -125 87 -179 189 -89 171 -100 349 -33 540 36 105 78 168 219 331 788 911 1204 1713 1460 2817 121 523 171 1019 161 1606 -10 551 -70 1002 -202 1523 -255 1000 -723 1902 -1392 2682 -141 164 -482 511 -655 666 -1186 1061 -2644 1668 -4262 1775 -193 13 -740 12 -925 -1z m-2079 -1159 c301 -77 496 -357 447 -642 -55 -316 -381 -531 -715 -472 -435 78 -640 539 -394 884 77 107 190 184 336 226 81 24 242 26 326 4z m5408 0 c268 -68 456 -296 456 -551 0 -138 -51 -267 -145 -370 -124 -133 -275 -199 -459 -200 -67 0 -129 6 -173 18 -207 55 -366 208 -424 404 -24 81 -22 224 4 308 56 182 233 343 428 391 82 19 236 20 313 0z m-7718 -2163 c225 -57 401 -234 445 -444 57 -278 -114 -555 -402 -649 -71 -23 -105 -28 -201 -28 -99 -1 -127 4 -199 28 -275 94 -443 346 -406 609 33 232 194 410 437 480 81 24 242 26 326 4z m10014 5 c30 -7 95 -31 145 -55 198 -94 325 -290 325 -501 0 -267 -179 -486 -458 -557 -418 -107 -824 233 -760 636 35 223 201 401 436 468 73 21 229 26 312 9z m-10841 -2850 c261 -62 454 -296 454 -551 0 -218 -119 -406 -318 -504 -164 -81 -329 -93 -497 -37 -361 120 -513 508 -326 827 65 110 214 219 359 261 79 23 239 25 328 4z m11741 -19 c204 -72 344 -231 387 -439 60 -290 -153 -589 -467 -655 -226 -48 -458 27 -613 198 -43 46 -101 160 -120 233 -76 290 119 596 436 682 92 25 279 16 377 -19z m-10935 -2701 c228 -47 410 -220 461 -437 55 -230 -53 -469 -269 -600 -403 -243 -937 31 -937 481 0 157 51 274 166 389 155 153 361 213 579 167z m10027 0 c207 -43 370 -181 447 -378 35 -90 35 -265 0 -357 -51 -131 -133 -229 -254 -301 -333 -202 -782 -50 -908 305 -35 100 -35 251 1 353 99 279 407 443 714 378z"/> <path d="M6650 12041 c-78 -77 -149 -152 -157 -168 -22 -42 -22 -1046 1 -1087 17 -34 263 -279 296 -295 16 -8 148 -12 410 -12 l387 0 44 -45 45 -45 0 -175 0 -174 -44 -38 -44 -38 -256 1 -255 0 0 98 c0 141 19 133 -302 133 -226 0 -266 -3 -280 -17 -14 -14 -16 -51 -16 -241 0 -132 4 -236 11 -253 13 -35 254 -282 295 -304 24 -12 125 -15 585 -15 364 0 566 4 585 11 33 12 242 213 289 277 l30 41 0 530 0 531 -157 158 -157 158 -407 3 -408 3 -34 33 -34 34 0 177 0 178 41 41 41 41 258 0 259 0 0 -109 c0 -92 2 -111 19 -126 16 -15 52 -17 282 -17 241 0 264 1 280 19 15 16 17 50 17 257 0 187 -3 245 -15 267 -18 34 -264 279 -297 295 -16 8 -197 12 -597 12 l-574 0 -141 -139z"/> <path d="M8814 12150 c-64 -47 -265 -256 -277 -289 -7 -19 -11 -375 -11 -1097 0 -972 2 -1070 17 -1094 26 -39 224 -239 271 -274 l41 -30 570 0 570 0 61 51 c96 82 242 235 254 267 8 20 12 374 12 1090 0 871 -3 1066 -15 1094 -8 19 -78 96 -157 173 l-143 139 -576 0 -576 0 -41 -30z m871 -611 l38 -42 0 -734 0 -734 -27 -32 -27 -32 -245 0 -245 0 -27 32 -27 32 0 739 0 738 44 38 45 37 216 0 217 1 38 -43z"/> <path d="M10611 12157 c-15 -21 -16 -170 -16 -1384 0 -1214 1 -1363 16 -1384 16 -23 19 -23 283 -23 228 0 268 2 282 16 15 15 17 80 17 557 l0 540 299 0 300 0 0 -533 c0 -466 2 -536 16 -557 16 -23 19 -23 286 -23 197 0 274 3 283 13 19 18 19 2770 0 2788 -9 10 -86 13 -283 13 -267 0 -270 0 -286 -23 -14 -21 -16 -91 -16 -552 l0 -527 -300 0 -299 0 0 534 c0 472 -2 537 -16 552 -15 14 -55 16 -283 16 -264 0 -267 0 -283 -23z"/> <path d="M12983 12168 c-33 -18 -278 -263 -294 -295 -13 -24 -15 -192 -15 -1111 l0 -1083 139 -142 c76 -78 152 -148 167 -156 23 -12 129 -15 596 -15 l568 0 144 137 c80 77 152 155 162 176 17 36 18 112 16 1110 -2 988 -4 1073 -20 1096 -10 14 -82 86 -160 160 l-142 135 -570 0 c-391 -1 -576 -4 -591 -12z m842 -631 l46 -44 0 -730 0 -729 -34 -35 -34 -34 -237 0 -238 0 -28 29 -28 29 0 741 0 742 42 38 42 38 212 0 212 0 45 -45z"/> </g> </svg>